<svg xmlns="http://www.w3.org/2000/svg" viewBox="0 0 32 32">
  <path d="M15.9.087l.854 1.604c.192.296.4.558.645.802.715.715 1.394 1.464 2.004 2.266 1.447 1.9 2.423 4.01 3.12 6.292.418 1.394.645 2.824.662 4.27.07 4.323-1.412 8.035-4.4 11.12-.488.488-1.01.94-1.57 1.342-.296 0-.436-.227-.558-.436-.227-.383-.366-.802-.436-1.222-.105-.558-.122-1.133-.105-1.7.017-.296.052-.61.105-.906.17-.802.296-1.57.366-2.38.07-.73.052-1.47-.122-2.186-.52-1.394-.976-2.754-1.447-4.148-.157-.435-.366-.87-.645-1.255-.488-.696-1.133-1.222-1.954-1.55-.8-.262-1.55-.296-2.318-.017-.435.14-.87.383-1.273.662-.556.4-1.029.87-1.447 1.377-.87 1.133-1.464 2.423-1.805 3.802-.087.28-.122.575-.157.87v.35c-.052.435-.087.87-.07 1.306.017.435.105.87.262 1.273.047.105.087.227.122.35l.017.07c.157.575.297 1.168.488 1.726.557 1.65 1.306 3.198 2.232 4.648.488.732 1.01 1.447 1.55 2.162.105.14.227.297.297.435.192.244.244.506.104.784-.088.192-.21.33-.367.435-.174.087-.366.156-.558.21-.557.14-1.133.157-1.7.07-.8-.14-1.5-.488-2.146-.976-.896-.662-1.624-1.464-2.232-2.38-.87-1.308-1.624-2.688-2.196-4.148-.262-.7-.488-1.415-.7-2.126-.105-.438-.192-.89-.262-1.34-.244-1.168-.383-2.336-.383-3.52 0-1.58.21-3.138.716-4.644.69-2.044 1.817-3.872 3.223-5.537 1.29-1.553 2.824-2.772 4.61-3.695C12.52.436 13.706.052 14.96.017h.488c.313 0 .61.017.906.07.542.07 1.067.18 1.553.35z" fill="#599636"/>
  <path d="M15.9.034c-.035-.07-.07-.017-.106-.034-.017.017 0 .034.018.052.017 0 .07-.017.087-.017z" fill="#fff"/>
  <path d="M16.754 29.272c.017-.035.035-.07.07-.087-.157.244-.244.558-.244.906 0 .157 0 .33.035.488.035.227.07.435.157.628v.104c.104.47.244.906.453 1.325.035.07.07.157.122.21.052.07.122.122.21.157h.035c.052.017.087.07.122.07h.017c.035 0 .052-.017.052-.053 0-.017 0-.034-.017-.052-.035-.07-.07-.122-.088-.21-.052-.122-.087-.244-.122-.366-.052-.21-.087-.435-.087-.66-.017-.244 0-.47.052-.7.017-.105.052-.192.087-.297.07-.14.157-.244.28-.366.183-.21.384-.4.593-.575.157-.14.314-.297.453-.47.244-.28.453-.592.627-.94.07-.14.122-.297.174-.453.053-.174.088-.366.123-.54.052-.47.052-.94-.018-1.394-.087-.54-.28-1.063-.54-1.553-.314-.558-.697-1.063-1.15-1.516-.384-.384-.8-.732-1.204-1.1-.14-.122-.297-.21-.47-.297-.174-.087-.366-.122-.558-.157-.157-.035-.297-.07-.454-.087-.174-.017-.314-.053-.47-.053-.244-.017-.488-.017-.732.018-.21.017-.418.07-.627.14-.244.07-.47.174-.688.297-.244.14-.47.297-.662.488-.07.07-.14.14-.174.227-.035.07-.053.157-.053.244 0 .174.053.33.175.47.122.122.244.227.4.297.21.087.418.14.645.157.244.018.488 0 .732-.052.192-.053.384-.106.558-.192.157-.087.297-.21.435-.332.035-.035.07-.07.088-.105.017-.017.052-.053.052-.07.017-.017 0-.052-.017-.052s-.035 0-.052.018c-.017.017-.052.017-.07.035-.14.122-.296.21-.47.28-.174.07-.366.105-.54.122-.21.017-.435.017-.645-.035-.21-.053-.4-.14-.575-.262-.157-.105-.28-.244-.366-.4-.087-.14-.122-.314-.105-.488 0-.157.053-.297.14-.418.087-.122.174-.244.28-.33.28-.262.592-.488.94-.662.383-.192.784-.314 1.204-.366.418-.052.836-.035 1.255.053.384.087.75.21 1.098.4.662.33 1.255.767 1.797 1.273.54.505 1.01 1.063 1.447 1.657.192.262.366.54.505.83.157.28.28.592.366.906.104.366.122.75.087 1.133-.035.418-.14.818-.314 1.203-.157.366-.4.697-.662.975-.244.28-.54.505-.854.697-.314.192-.645.366-.994.488-.087.035-.157.07-.244.087-.052.018-.087.053-.122.07-.035.018-.07.018-.087.053z" fill="#6cae3e"/>
</svg>

